# xmcd
#
# Track frame offsets:
#	150
#	21697
#	44500
#	79722
#	93417
#	113180
#	132205
#	149457
#
# Disc length: 2276 seconds
#
# Revision: 13
# Processed by: cddbd v1.5.2PL0 Copyright (c) Steve Scherf et al.
# Submitted via: Jack! The Knife 20 Magnifico
#
DISCID=6f08e208
DTITLE=Boston - Boston
DYEAR=1976
DGENRE=Rock
TTITLE0=More Than A Feeling
TTITLE1=Peace Of Mind
TTITLE2=Foreplay/Long Time
TTITLE3=Rock and Roll Band
TTITLE4=Smokin'
TTITLE5=Hitch A Ride
TTITLE6=Something About You
TTITLE7=Let Me Take You Home Tonight
EXTD=John Boylan and Tom Scholz
EXTT0=Tom Scholz
EXTT1=Tom Scholz
EXTT2=Tom Scholz
EXTT3=Tom Scholz
EXTT4=Tom Scholz
EXTT5=Tom Scholz
EXTT6=Tom Scholz
EXTT7=Tom Scholz
PLAYORDER=
